<?xml version="1.0" encoding="UTF-8" standalone="no"?>
<!-- Created with Inkscape (http://www.inkscape.org/) -->

<svg
   version="1.1"
   id="svg824"
   xml:space="preserve"
   width="207.87466"
   height="188.976"
   viewBox="0 0 207.87466 188.976"
   sodipodi:docname="NKUST.svg"
   inkscape:version="1.1 (c68e22c387, 2021-05-23)"
   xmlns:inkscape="http://www.inkscape.org/namespaces/inkscape"
   xmlns:sodipodi="http://sodipodi.sourceforge.net/DTD/sodipodi-0.dtd"
   xmlns="http://www.w3.org/2000/svg"
   xmlns:svg="http://www.w3.org/2000/svg"><defs
     id="defs828"><clipPath
       clipPathUnits="userSpaceOnUse"
       id="clipPath838"><path
         d="M 0,141.732 H 155.906 V 0 H 0 Z"
         id="path836" /></clipPath></defs><sodipodi:namedview
     id="namedview826"
     pagecolor="#ffffff"
     bordercolor="#666666"
     borderopacity="1.0"
     inkscape:pageshadow="2"
     inkscape:pageopacity="0.0"
     inkscape:pagecheckerboard="0"
     showgrid="false"
     inkscape:zoom="4.2068835"
     inkscape:cx="103.99623"
     inkscape:cy="94.487999"
     inkscape:window-width="1920"
     inkscape:window-height="1013"
     inkscape:window-x="-9"
     inkscape:window-y="-9"
     inkscape:window-maximized="1"
     inkscape:current-layer="g830" /><g
     id="g830"
     inkscape:groupmode="layer"
     inkscape:label="797014795"
     transform="matrix(1.3333333,0,0,-1.3333333,0,188.976)"><g
       id="g832"><g
         id="g834"
         clip-path="url(#clipPath838)"><g
           id="g840"
           transform="translate(146.4355,49.6063)"><path
             d="m 0,0 c -2.739,0 -4.96,-2.221 -4.96,-4.961 0,-2.739 2.221,-4.96 4.96,-4.96 2.74,0 4.961,2.221 4.961,4.96 C 4.961,-2.221 2.74,0 0,0"
             style="fill:#006dad;fill-opacity:1;fill-rule:nonzero;stroke:none"
             id="path842" /></g><g
           id="g844"
           transform="translate(9.4697,29.7635)"><path
             d="M 0,0 C 2.74,0 4.96,-2.221 4.96,-4.96 4.96,-7.7 2.74,-9.921 0,-9.921 -2.74,-9.921 -4.961,-7.7 -4.961,-4.96 -4.961,-2.221 -2.74,0 0,0"
             style="fill:#006dad;fill-opacity:1;fill-rule:nonzero;stroke:none"
             id="path846" /></g><g
           id="g848"
           transform="translate(65.1377,29.7655)"><path
             d="m 0,0 h -11.452 c -2.836,0 -5.135,2.401 -5.135,5.136 0,2.735 2.299,5.135 5.135,5.135 H 0 c 2.836,0 5.135,-2.298 5.135,-5.135 C 5.135,2.3 2.836,0 0,0 M 78.089,0 H 43.796 c -2.74,0 -4.961,2.222 -4.961,4.962 0,2.739 2.221,4.96 4.961,4.96 h 22.607 c 2.74,0 4.961,2.222 4.961,4.962 0,2.715 -2.182,4.918 -4.889,4.957 H 43.513 c -19.468,0 -30.571,-6.953 -30.571,-6.953 0,0 -11.103,6.953 -30.57,6.953 h -37.278 c -2.707,-0.039 -4.889,-2.242 -4.889,-4.957 0,-2.74 2.221,-4.962 4.961,-4.962 h 26.046 c 2.74,0 4.961,-2.221 4.961,-4.96 0,-2.74 -2.221,-4.962 -4.961,-4.962 h -11.878 c -2.739,0 -4.96,-2.221 -4.96,-4.96 0,-2.74 2.221,-4.962 4.96,-4.962 h 5.017 c 2.74,0 4.961,-2.221 4.961,-4.961 0,-2.739 -2.221,-4.961 -4.961,-4.961 h -5.018 c -2.74,0 -4.96,-2.22 -4.96,-4.961 0,-2.74 2.22,-4.961 4.96,-4.961 h 30.213 c 2.741,0 4.961,2.221 4.961,4.961 0,2.741 -2.22,4.961 -4.961,4.961 l -3.677,0.01 c -2.737,0 -4.956,2.316 -4.956,4.956 0,2.64 2.219,4.956 4.956,4.956 h 44.374 c 2.737,0 4.956,-2.219 4.956,-4.956 0,-2.736 -2.219,-4.956 -4.956,-4.956 l -17.82,-0.01 c -2.74,0 -4.961,-2.22 -4.961,-4.961 0,-2.74 2.221,-4.961 4.961,-4.961 h 52.334 c 2.74,0 4.961,2.221 4.961,4.961 0,2.741 -2.221,4.961 -4.961,4.961 h -5.018 c -2.74,0 -4.961,2.222 -4.961,4.961 0,2.74 2.221,4.961 4.961,4.961 h 18.35 c 2.74,0 4.962,2.222 4.962,4.962 0,2.739 -2.222,4.96 -4.962,4.96"
             style="fill:#006dad;fill-opacity:1;fill-rule:nonzero;stroke:none"
             id="path850" /></g><g
           id="g852"
           transform="translate(77.9526,119.5848)"><path
             d="M 0,0 12.578,8.471 4.538,-4.782 12.578,-18.035 0,-9.563 l -12.578,-8.472 8.04,13.253 -8.04,13.253 z"
             style="fill:#f6ab00;fill-opacity:1;fill-rule:nonzero;stroke:none"
             id="path854" /></g><g
           id="g856"
           transform="translate(80.6514,117.6468)"><path
             d="M 0,0 19.742,-2.844 0,-5.687 -2.699,-29.773 -5.397,-5.687 -25.14,-2.844 -5.397,0 -2.699,24.085 Z"
             style="fill:#f6ab00;fill-opacity:1;fill-rule:nonzero;stroke:none"
             id="path858" /></g><g
           id="g860"
           transform="translate(77.9526,56.952)"><path
             d="m 0,0 c -8.097,10.493 -19.698,15.908 -32.17,20.8 -8.127,3.187 -32.018,11.658 -40.871,14.731 l 5.974,-13.716 C -54.089,18.931 -38.584,15.752 -33.5,14.559 -26.271,12.861 -9.579,8.343 0,0"
             style="fill:#ed6d00;fill-opacity:1;fill-rule:nonzero;stroke:none"
             id="path862" /></g><g
           id="g864"
           transform="translate(49.1338,87.6097)"><path
             d="m 0,0 c -5.075,3.257 -35.437,21.509 -35.442,21.503 l 3.277,-14.054 c 12.06,-4.947 27.02,-11.345 30.68,-13.243 8.604,-4.463 22.212,-10.217 29.76,-23.079 C 22.731,-13.962 9.969,-6.398 0,0"
             style="fill:#ed6d00;fill-opacity:1;fill-rule:nonzero;stroke:none"
             id="path866" /></g><g
           id="g868"
           transform="translate(58.1943,96.2645)"><path
             d="m 0,0 c -3.364,3.02 -10.89,10.175 -32.027,26.578 l 0.766,-14.025 C -22.56,6.649 -10.828,-1.285 -7.797,-3.465 4.319,-12.182 14.823,-19.708 19.383,-35.752 18.601,-17.753 8.184,-7.344 0,0"
             style="fill:#ed6d00;fill-opacity:1;fill-rule:nonzero;stroke:none"
             id="path870" /></g><g
           id="g872"
           transform="translate(77.9526,56.952)"><path
             d="m 0,0 c 8.097,10.493 19.699,15.908 32.17,20.8 8.127,3.187 32.019,11.658 40.871,14.731 L 67.067,21.815 C 54.089,18.931 38.584,15.752 33.5,14.559 26.272,12.861 9.579,8.343 0,0"
             style="fill:#ed6d00;fill-opacity:1;fill-rule:nonzero;stroke:none"
             id="path874" /></g><g
           id="g876"
           transform="translate(106.7715,87.6097)"><path
             d="M 0,0 C 5.075,3.257 35.438,21.509 35.442,21.503 L 32.165,7.449 C 20.105,2.502 5.146,-3.896 1.485,-5.794 -7.118,-10.257 -20.727,-16.011 -28.275,-28.873 -22.731,-13.962 -9.969,-6.398 0,0"
             style="fill:#ed6d00;fill-opacity:1;fill-rule:nonzero;stroke:none"
             id="path878" /></g><g
           id="g880"
           transform="translate(97.7109,96.2645)"><path
             d="M 0,0 C 3.364,3.02 10.89,10.175 32.027,26.578 L 31.261,12.553 C 22.56,6.649 10.828,-1.285 7.797,-3.465 -4.319,-12.182 -14.823,-19.708 -19.383,-35.752 -18.601,-17.753 -8.184,-7.344 0,0"
             style="fill:#ed6d00;fill-opacity:1;fill-rule:nonzero;stroke:none"
             id="path882" /></g><g
           id="g884"
           transform="translate(77.9526,56.9403)"><path
             d="m 0,0 c -0.673,0.396 -18.671,13.281 -77.953,15.191 l 8.176,-15.295 c 35.208,0 59.375,-3.334 69.777,-9.634 10.403,6.3 34.569,9.634 69.778,9.634 l 8.175,15.295 C 18.671,13.281 0.673,0.396 0,0"
             style="fill:#2e4198;fill-opacity:1;fill-rule:nonzero;stroke:none"
             id="path886" /></g></g></g></g></svg>
